<?xml version="1.0" encoding="utf-8" standalone="no"?><svg width="602" height="137" xmlns="http://www.w3.org/2000/svg"><style type="text/css">.st0{fill:#009FD9;} .st1{fill:#FFFFFF;}</style><g><title>background</title><rect fill="none" id="canvas_background" height="139" width="604" y="-1" x="-1"/></g><g><title>Layer 1</title><path id="svg_1" d="m104.59999,18.3l-48.8,-17.3c-1.2,-0.4 -2.8,-0.2 -3.4,0l-48.8,17.3c-1.9,0.7 -3.2,2.6 -3.2,4.5l0,55.2c0,12.9 7.5,23.6 17.3,32.7c9.8,9.1 22.2,17 33.5,24.8c1.6,1.1 4,1.1 5.7,0c11.4,-7.8 23.7,-15.7 33.5,-24.8c9.8,-9.1 17.3,-19.8 17.3,-32.7l0,-55.2c0.1,-2 -1.3,-3.8 -3.1,-4.5zm-44,64.8c0,4.8 -1.3,9.5 -3.8,13.6l-2.7,4.6l-2.7,-4.6c-2.5,-4.1 -3.8,-8.8 -3.8,-13.6l0,-21.9c3.2,-4.3 8,-5.9 13,-5.9l0,27.8zm20.1,-32.7l-53.3,0l0,-11.8l53.3,0l0,11.8z" class="st0"/><path id="svg_2" d="m482.29999,56.6c13,0 21.2,6.4 21.2,19.1l0,25.7l-11.9,0l0,-5.1c-2.4,3.6 -7.5,6.3 -13.8,6.3c-10.2,0 -16.4,-6.6 -16.4,-13.8c0,-8.2 6.3,-12.7 14.3,-13.8c0,0 13.1,-1.6 15,-1.8c0,-5.4 -5,-6.6 -10,-6.6c-5.1,0 -9.2,1.8 -12.4,3.9l-4.7,-8.1c4.9,-3.5 11.3,-5.8 18.7,-5.8z"/><path id="svg_3" d="m480.09999,93.5c-4.2,0 -6.2,-2.6 -6.2,-5.3c0,-3.5 2.6,-5.3 5.9,-5.8l11.3,-1.6l0,2c0,8.1 -5.6,10.7 -11,10.7l0,0z" class="st1"/><path id="svg_4" d="m205.49999,62.6c3.3,-4.3 8.1,-5.9 13.1,-5.9c10.4,0 17.8,6.9 17.8,17l0,27.8l-12.3,0l0,-24c0,-6.3 -3.3,-9.8 -8.9,-9.8c-5.3,0 -9.7,3.3 -9.7,9.9l0,23.9l-12.3,0l0,-61.5l12.3,0l0,22.6l0,0zm162.7,11.1l0,27.8l-12.2,0l0,-24c0,-6.3 -3.3,-9.8 -8.9,-9.8c-5.3,0 -9.7,3.3 -9.7,9.9l0,23.9l-12.3,0l0,-24c0,-6.3 -3.3,-9.8 -8.9,-9.8c-5.3,0 -9.7,3.3 -9.7,9.9l0,23.9l-12.2,0l0,-43.6l12,0l0,5.1c3.3,-4.6 8.2,-6.3 13.4,-6.3c6.6,0 12,2.8 15.1,7.5c3.5,-5.5 9.5,-7.5 15.5,-7.5c10.7,0 18,6.9 17.9,17l0,0zm55.1,5.9c0,13.1 -9.5,22.9 -22.1,22.9c-6.3,0 -10.7,-2.4 -13.7,-5.9l0,4.8l-12,0l0,-61.4l12.2,0l0,22.4c3,-3.4 7.3,-5.7 13.4,-5.7c12.7,0 22.2,9.9 22.2,22.9l0,0zm-35.9,0c0,6.9 4.8,12 11.7,12c7.3,0 11.8,-5.4 11.8,-12c0,-6.7 -4.5,-12 -11.8,-12c-6.9,0 -11.7,5.2 -11.7,12l0,0zm163.3,-14.7l-8.9,7.1c-2.8,-2.8 -5.7,-4.4 -9.7,-4.4c-6.4,0 -11.4,4.8 -11.4,12c0,7.3 5,12 11.4,12c4,0 7.4,-1.7 9.9,-4.4l8.8,7.2c-4.3,5.3 -10.7,8.2 -18.3,8.2c-14.6,0 -24.3,-9.7 -24.3,-22.9c0,-13.2 9.8,-22.9 24.3,-22.9c7.5,-0.1 14,2.9 18.2,8.1l0,0zm47.2,-7l-16.6,16.3l19.1,27.3l-15,0l-12.7,-19.7l-5.6,5.5l0,14.2l-12.3,0l0,-61.4l12.3,0l0,34l15.9,-16.2l14.9,0l0,0zm-323.8,38.9c-3.3,4.3 -8.1,5.9 -13.1,5.9c-10.4,0 -17.8,-6.9 -17.8,-17l0,-27.8l12.3,0l0,24c0,6.3 3.3,9.8 8.9,9.8c5.3,0 9.7,-3.3 9.7,-9.9l0,-23.9l12.3,0l0,43.6l-12.3,0l0,-4.7l0,0zm150.8,-38.9l6.7,0l0,-13l12.3,0l0,13l13.6,0l0,10.4l-13.6,0l0,18.4c0,3.1 2.2,4.9 4.6,4.9c2.6,0 5.9,-1.5 5.9,-1.5l4,9.3c0,0 -4.2,3.1 -13.6,3.1c-6.2,0 -13.1,-4.5 -13.1,-13.2l0,-21l-6.7,0l-0.1,-10.4l0,0zm-256.3,-1.2l0,27.7c0,4.8 -1.3,9.5 -3.8,13.6l-2.8,4.6l-2.8,-4.6c-2.5,-4.1 -3.8,-8.8 -3.8,-13.6l0,-21.8c3.3,-4.4 8.2,-5.9 13.2,-5.9zm-33.6,-5l0,-11.7l54,0l0,11.7l-54,0z"/></g></svg>