<?xml version="1.0" encoding="UTF-8" standalone="no"?><svg version="1.1" id="Réteg_1" xmlns="http://www.w3.org/2000/svg" xmlns:xlink="http://www.w3.org/1999/xlink" x="0px" y="0px" viewBox="0 0 602 137" style="enable-background:new 0 0 602 137;" xml:space="preserve"><style type="text/css">.st0{fill:none;}.st1{fill:#009FD9;}.st2{fill:#FFFFFF;}</style><g><rect id="canvas_background" x="-1" y="-1" class="st0" width="604" height="139"/></g><g><path id="svg_1" class="st1" d="M104.6,18.3L55.8,1c-1.2-0.4-2.8-0.2-3.4,0L3.6,18.3c-1.9,0.7-3.2,2.6-3.2,4.5V78	c0,12.9,7.5,23.6,17.3,32.7s22.2,17,33.5,24.8c1.6,1.1,4,1.1,5.7,0c11.4-7.8,23.7-15.7,33.5-24.8s17.3-19.8,17.3-32.7V22.8	C107.8,20.8,106.4,19,104.6,18.3z M60.6,83.1c0,4.8-1.3,9.5-3.8,13.6l-2.7,4.6l-2.7-4.6c-2.5-4.1-3.8-8.8-3.8-13.6V61.2	c3.2-4.3,8-5.9,13-5.9V83.1z M80.7,50.4H27.4V38.6h53.3V50.4z"/><path id="svg_2" class="st2" d="M482.3,56.6c13,0,21.2,6.4,21.2,19.1v25.7h-11.9v-5.1c-2.4,3.6-7.5,6.3-13.8,6.3	c-10.2,0-16.4-6.6-16.4-13.8c0-8.2,6.3-12.7,14.3-13.8c0,0,13.1-1.6,15-1.8c0-5.4-5-6.6-10-6.6c-5.1,0-9.2,1.8-12.4,3.9l-4.7-8.1	C468.5,58.9,474.9,56.6,482.3,56.6L482.3,56.6z"/><path id="svg_3" class="st2" d="M480.1,93.5c-4.2,0-6.2-2.6-6.2-5.3c0-3.5,2.6-5.3,5.9-5.8l11.3-1.6v2	C491.1,90.9,485.5,93.5,480.1,93.5L480.1,93.5L480.1,93.5z"/><path id="svg_4" class="st2" d="M205.5,62.6c3.3-4.3,8.1-5.9,13.1-5.9c10.4,0,17.8,6.9,17.8,17v27.8h-12.3v-24	c0-6.3-3.3-9.8-8.9-9.8c-5.3,0-9.7,3.3-9.7,9.9v23.9h-12.3V40h12.3L205.5,62.6L205.5,62.6L205.5,62.6z M368.2,73.7v27.8H356v-24	c0-6.3-3.3-9.8-8.9-9.8c-5.3,0-9.7,3.3-9.7,9.9v23.9h-12.3v-24c0-6.3-3.3-9.8-8.9-9.8c-5.3,0-9.7,3.3-9.7,9.9v23.9h-12.2V57.9h12	V63c3.3-4.6,8.2-6.3,13.4-6.3c6.6,0,12,2.8,15.1,7.5c3.5-5.5,9.5-7.5,15.5-7.5C361,56.7,368.3,63.6,368.2,73.7L368.2,73.7	L368.2,73.7z M423.3,79.6c0,13.1-9.5,22.9-22.1,22.9c-6.3,0-10.7-2.4-13.7-5.9v4.8h-12V40h12.2v22.4c3-3.4,7.3-5.7,13.4-5.7	C413.8,56.7,423.3,66.6,423.3,79.6L423.3,79.6z M387.4,79.6c0,6.9,4.8,12,11.7,12c7.3,0,11.8-5.4,11.8-12c0-6.7-4.5-12-11.8-12	C392.2,67.6,387.4,72.8,387.4,79.6L387.4,79.6z M550.7,64.9l-8.9,7.1c-2.8-2.8-5.7-4.4-9.7-4.4c-6.4,0-11.4,4.8-11.4,12	c0,7.3,5,12,11.4,12c4,0,7.4-1.7,9.9-4.4l8.8,7.2c-4.3,5.3-10.7,8.2-18.3,8.2c-14.6,0-24.3-9.7-24.3-22.9s9.8-22.9,24.3-22.9	C540,56.7,546.5,59.7,550.7,64.9L550.7,64.9L550.7,64.9z M597.9,57.9l-16.6,16.3l19.1,27.3h-15l-12.7-19.7l-5.6,5.5v14.2h-12.3	V40.1h12.3v34L583,57.9L597.9,57.9L597.9,57.9L597.9,57.9z M274.1,96.8c-3.3,4.3-8.1,5.9-13.1,5.9c-10.4,0-17.8-6.9-17.8-17V57.9	h12.3v24c0,6.3,3.3,9.8,8.9,9.8c5.3,0,9.7-3.3,9.7-9.9V57.9h12.3v43.6h-12.3V96.8C274.1,96.8,274.1,96.8,274.1,96.8z M424.9,57.9	h6.7v-13h12.3v13h13.6v10.4h-13.6v18.4c0,3.1,2.2,4.9,4.6,4.9c2.6,0,5.9-1.5,5.9-1.5l4,9.3c0,0-4.2,3.1-13.6,3.1	c-6.2,0-13.1-4.5-13.1-13.2v-21H425L424.9,57.9L424.9,57.9L424.9,57.9z M168.6,56.7v27.7c0,4.8-1.3,9.5-3.8,13.6l-2.8,4.6l-2.8-4.6	c-2.5-4.1-3.8-8.8-3.8-13.6V62.6C158.7,58.2,163.6,56.7,168.6,56.7L168.6,56.7z M135,51.7V40h54v11.7H135z"/></g></svg>